<svg xmlns="http://www.w3.org/2000/svg" width="233.7" height="272.27" viewBox="38.1 38.68 233.7 272.27"><defs><linearGradient id="b" gradientUnits="userSpaceOnUse" x1="58.04" y1="127.6" x2="130.74" y2="288.19"><stop offset="0.000" stop-color="#3F4582"/><stop offset="0.259" stop-color="#6770C3"/><stop offset="0.370" stop-color="#707AD0"/><stop offset="0.630" stop-color="#6770C0"/><stop offset="0.704" stop-color="#6770C1"/><stop offset="1.000" stop-color="#7984DB"/></linearGradient><radialGradient id="s" gradientUnits="userSpaceOnUse" cx="67.76" cy="249.41" r="161.83" gradientTransform="translate(17.45 0.5) scale(0.7499 1)"><stop offset="0.000" stop-color="#C8D6FF" stop-opacity="0.500"/><stop offset="0.133" stop-color="#C8D6FF" stop-opacity="0.476"/><stop offset="0.533" stop-color="#C8D6FF" stop-opacity="0.200"/><stop offset="0.867" stop-color="#C8D6FF" stop-opacity="0.077"/><stop offset="1.000" stop-color="#C8D6FF" stop-opacity="0.000"/></radialGradient><linearGradient id="a" gradientUnits="userSpaceOnUse" x1="121.24" y1="0" x2="190.82" y2="0"><stop offset="0.000" stop-color="#49508B" stop-opacity="0.000"/><stop offset="0.320" stop-color="#49508B" stop-opacity="0.131"/><stop offset="0.679" stop-color="#49508B" stop-opacity="0.509"/><stop offset="0.852" stop-color="#49508B" stop-opacity="0.736"/><stop offset="1.000" stop-color="#49508B" stop-opacity="0.995"/></linearGradient><path id="m" d="M 38.1 310.95V163.08A45 45 0 0 1 83.1 118.08H121.24V159.31H170.02A20.8 20.8 0 0 0 190.79 139.64V193.1A45 45 0 0 1 145.82 238.1H121.24V265.95A45 45 0 0 1 76.24 310.95Z"/></defs><path fill="#18181b" fill-rule="evenodd" d="M 38.1 83.68A45 45 0 0 1 83.1 38.68H172.08A99.72 99.72 0 1 1 172.08 238.1H121.24V265.95A45 45 0 0 1 76.24 310.95H38.1ZM 121.24 118.08H168.12A22.7 22.7 0 0 1 190.79 139.64A20.8 20.8 0 0 1 170.02 159.31H121.24Z"/><use href="#m" fill="url(#b)"/><use href="#m" fill="url(#s)"/><use href="#m" fill="url(#a)"/></svg>